<?xml version="1.0" encoding="UTF-8" standalone="no"?>
<!DOCTYPE svg PUBLIC "-//W3C//DTD SVG 1.1//EN"
 "http://www.w3.org/Graphics/SVG/1.1/DTD/svg11.dtd">
<!-- Generated by graphviz version 2.50.0 (0)
 -->
<!-- Title: AST Pages: 1 -->
<svg width="1804pt" height="1525pt"
 viewBox="0.00 0.00 1804.19 1524.74" xmlns="http://www.w3.org/2000/svg" xmlns:xlink="http://www.w3.org/1999/xlink">
<g id="graph0" class="graph" transform="scale(1 1) rotate(0) translate(4 1520.74)">
<title>AST</title>
<polygon fill="white" stroke="transparent" points="-4,4 -4,-1520.74 1800.19,-1520.74 1800.19,4 -4,4"/>
<text text-anchor="middle" x="44" y="-1501.54" font-family="Times,serif" font-size="14.00">抽象语法树</text>
<!-- nd0x6060000188c0 -->
<g id="node1" class="node">
<title>nd0x6060000188c0</title>
<ellipse fill="none" stroke="black" cx="162.84" cy="-1475.74" rx="29.5" ry="18"/>
<text text-anchor="middle" x="162.84" y="-1472.04" font-family="Times,serif" font-size="14.00">程序</text>
</g>
<!-- nd0x606000018920 -->
<g id="node2" class="node">
<title>nd0x606000018920</title>
<ellipse fill="none" stroke="black" cx="162.84" cy="-1403.74" rx="66.09" ry="18"/>
<text text-anchor="middle" x="162.84" y="-1400.04" font-family="Times,serif" font-size="14.00">外部定义序列</text>
</g>
<!-- nd0x6060000188c0&#45;&gt;nd0x606000018920 -->
<g id="edge1" class="edge">
<title>nd0x6060000188c0&#45;&gt;nd0x606000018920</title>
<path fill="none" stroke="black" d="M162.84,-1457.44C162.84,-1449.72 162.84,-1440.45 162.84,-1431.85"/>
<polygon fill="black" stroke="black" points="166.34,-1431.84 162.84,-1421.84 159.34,-1431.84 166.34,-1431.84"/>
</g>
<!-- nd0x606000018980 -->
<g id="node3" class="node">
<title>nd0x606000018980</title>
<ellipse fill="none" stroke="black" cx="96.84" cy="-1331.74" rx="48.19" ry="18"/>
<text text-anchor="middle" x="96.84" y="-1328.04" font-family="Times,serif" font-size="14.00">外部定义</text>
</g>
<!-- nd0x606000018920&#45;&gt;nd0x606000018980 -->
<g id="edge2" class="edge">
<title>nd0x606000018920&#45;&gt;nd0x606000018980</title>
<path fill="none" stroke="black" d="M147.2,-1386.15C138.9,-1377.35 128.55,-1366.37 119.39,-1356.66"/>
<polygon fill="black" stroke="black" points="121.78,-1354.08 112.37,-1349.21 116.68,-1358.89 121.78,-1354.08"/>
</g>
<!-- nd0x606000018aa0 -->
<g id="node6" class="node">
<title>nd0x606000018aa0</title>
<ellipse fill="none" stroke="black" cx="230.84" cy="-1331.74" rx="66.09" ry="18"/>
<text text-anchor="middle" x="230.84" y="-1328.04" font-family="Times,serif" font-size="14.00">外部定义序列</text>
</g>
<!-- nd0x606000018920&#45;&gt;nd0x606000018aa0 -->
<g id="edge5" class="edge">
<title>nd0x606000018920&#45;&gt;nd0x606000018aa0</title>
<path fill="none" stroke="black" d="M178.96,-1386.15C187.51,-1377.35 198.18,-1366.37 207.61,-1356.66"/>
<polygon fill="black" stroke="black" points="210.39,-1358.82 214.84,-1349.21 205.36,-1353.94 210.39,-1358.82"/>
</g>
<!-- nd0x6060000189e0 -->
<g id="node4" class="node">
<title>nd0x6060000189e0</title>
<ellipse fill="none" stroke="black" cx="92.84" cy="-1259.74" rx="38.19" ry="18"/>
<text text-anchor="middle" x="92.84" y="-1256.04" font-family="Times,serif" font-size="14.00">预处理</text>
</g>
<!-- nd0x606000018980&#45;&gt;nd0x6060000189e0 -->
<g id="edge3" class="edge">
<title>nd0x606000018980&#45;&gt;nd0x6060000189e0</title>
<path fill="none" stroke="black" d="M95.85,-1313.44C95.41,-1305.72 94.88,-1296.45 94.39,-1287.85"/>
<polygon fill="black" stroke="black" points="97.88,-1287.63 93.82,-1277.84 90.9,-1288.03 97.88,-1287.63"/>
</g>
<!-- nd0x606000018a40 -->
<g id="node5" class="node">
<title>nd0x606000018a40</title>
<ellipse fill="lightgrey" stroke="black" cx="83.84" cy="-1187.74" rx="83.69" ry="18"/>
<text text-anchor="middle" x="83.84" y="-1184.04" font-family="Times,serif" font-size="14.00">#include &lt;stdio.h&gt;</text>
</g>
<!-- nd0x6060000189e0&#45;&gt;nd0x606000018a40 -->
<g id="edge4" class="edge">
<title>nd0x6060000189e0&#45;&gt;nd0x606000018a40</title>
<path fill="none" stroke="black" d="M90.62,-1241.44C89.63,-1233.72 88.43,-1224.45 87.33,-1215.85"/>
<polygon fill="black" stroke="black" points="90.79,-1215.32 86.04,-1205.84 83.85,-1216.21 90.79,-1215.32"/>
</g>
<!-- nd0x606000018b00 -->
<g id="node7" class="node">
<title>nd0x606000018b00</title>
<ellipse fill="none" stroke="black" cx="231.84" cy="-1259.74" rx="48.19" ry="18"/>
<text text-anchor="middle" x="231.84" y="-1256.04" font-family="Times,serif" font-size="14.00">外部定义</text>
</g>
<!-- nd0x606000018aa0&#45;&gt;nd0x606000018b00 -->
<g id="edge6" class="edge">
<title>nd0x606000018aa0&#45;&gt;nd0x606000018b00</title>
<path fill="none" stroke="black" d="M231.09,-1313.44C231.2,-1305.72 231.33,-1296.45 231.46,-1287.85"/>
<polygon fill="black" stroke="black" points="234.95,-1287.89 231.6,-1277.84 227.96,-1287.79 234.95,-1287.89"/>
</g>
<!-- nd0x606000018b60 -->
<g id="node8" class="node">
<title>nd0x606000018b60</title>
<ellipse fill="none" stroke="black" cx="233.84" cy="-1187.74" rx="48.19" ry="18"/>
<text text-anchor="middle" x="233.84" y="-1184.04" font-family="Times,serif" font-size="14.00">函数定义</text>
</g>
<!-- nd0x606000018b00&#45;&gt;nd0x606000018b60 -->
<g id="edge7" class="edge">
<title>nd0x606000018b00&#45;&gt;nd0x606000018b60</title>
<path fill="none" stroke="black" d="M232.34,-1241.44C232.56,-1233.72 232.82,-1224.45 233.07,-1215.85"/>
<polygon fill="black" stroke="black" points="236.57,-1215.94 233.35,-1205.84 229.57,-1215.74 236.57,-1215.94"/>
</g>
<!-- nd0x606000018bc0 -->
<g id="node9" class="node">
<title>nd0x606000018bc0</title>
<ellipse fill="lightgrey" stroke="black" cx="101.84" cy="-1115.74" rx="27" ry="18"/>
<text text-anchor="middle" x="101.84" y="-1112.04" font-family="Times,serif" font-size="14.00">int</text>
</g>
<!-- nd0x606000018b60&#45;&gt;nd0x606000018bc0 -->
<g id="edge8" class="edge">
<title>nd0x606000018b60&#45;&gt;nd0x606000018bc0</title>
<path fill="none" stroke="black" d="M207.13,-1172.57C185.15,-1160.92 154.02,-1144.41 131.32,-1132.37"/>
<polygon fill="black" stroke="black" points="132.93,-1129.27 122.46,-1127.67 129.65,-1135.45 132.93,-1129.27"/>
</g>
<!-- nd0x606000018c20 -->
<g id="node10" class="node">
<title>nd0x606000018c20</title>
<ellipse fill="lightgrey" stroke="black" cx="176.84" cy="-1115.74" rx="29.8" ry="18"/>
<text text-anchor="middle" x="176.84" y="-1112.04" font-family="Times,serif" font-size="14.00">main</text>
</g>
<!-- nd0x606000018b60&#45;&gt;nd0x606000018c20 -->
<g id="edge9" class="edge">
<title>nd0x606000018b60&#45;&gt;nd0x606000018c20</title>
<path fill="none" stroke="black" d="M220.33,-1170.15C213.03,-1161.18 203.89,-1149.95 195.87,-1140.11"/>
<polygon fill="black" stroke="black" points="198.5,-1137.8 189.47,-1132.25 193.07,-1142.22 198.5,-1137.8"/>
</g>
<!-- nd0x606000018c80 -->
<g id="node11" class="node">
<title>nd0x606000018c80</title>
<ellipse fill="none" stroke="black" cx="290.84" cy="-1115.74" rx="66.09" ry="18"/>
<text text-anchor="middle" x="290.84" y="-1112.04" font-family="Times,serif" font-size="14.00">函数形参序列</text>
</g>
<!-- nd0x606000018b60&#45;&gt;nd0x606000018c80 -->
<g id="edge10" class="edge">
<title>nd0x606000018b60&#45;&gt;nd0x606000018c80</title>
<path fill="none" stroke="black" d="M247.35,-1170.15C254.28,-1161.65 262.85,-1151.11 270.56,-1141.65"/>
<polygon fill="black" stroke="black" points="273.44,-1143.66 277.04,-1133.7 268.01,-1139.24 273.44,-1143.66"/>
</g>
<!-- nd0x606000018da0 -->
<g id="node14" class="node">
<title>nd0x606000018da0</title>
<ellipse fill="none" stroke="black" cx="448.84" cy="-1115.74" rx="48.19" ry="18"/>
<text text-anchor="middle" x="448.84" y="-1112.04" font-family="Times,serif" font-size="14.00">复合语句</text>
</g>
<!-- nd0x606000018b60&#45;&gt;nd0x606000018da0 -->
<g id="edge13" class="edge">
<title>nd0x606000018b60&#45;&gt;nd0x606000018da0</title>
<path fill="none" stroke="black" d="M268.86,-1175.34C305.8,-1163.31 364.1,-1144.33 404.29,-1131.25"/>
<polygon fill="black" stroke="black" points="405.41,-1134.56 413.84,-1128.14 403.24,-1127.91 405.41,-1134.56"/>
</g>
<!-- nd0x606000018ce0 -->
<g id="node12" class="node">
<title>nd0x606000018ce0</title>
<ellipse fill="none" stroke="black" cx="265.84" cy="-1043.74" rx="48.19" ry="18"/>
<text text-anchor="middle" x="265.84" y="-1040.04" font-family="Times,serif" font-size="14.00">函数形参</text>
</g>
<!-- nd0x606000018c80&#45;&gt;nd0x606000018ce0 -->
<g id="edge11" class="edge">
<title>nd0x606000018c80&#45;&gt;nd0x606000018ce0</title>
<path fill="none" stroke="black" d="M284.79,-1097.8C281.98,-1089.92 278.56,-1080.36 275.41,-1071.53"/>
<polygon fill="black" stroke="black" points="278.67,-1070.26 272.01,-1062.02 272.08,-1072.61 278.67,-1070.26"/>
</g>
<!-- nd0x606000018d40 -->
<g id="node13" class="node">
<title>nd0x606000018d40</title>
<ellipse fill="lightgrey" stroke="black" cx="200.84" cy="-971.74" rx="27.1" ry="18"/>
<text text-anchor="middle" x="200.84" y="-968.04" font-family="Times,serif" font-size="14.00">void</text>
</g>
<!-- nd0x606000018ce0&#45;&gt;nd0x606000018d40 -->
<g id="edge12" class="edge">
<title>nd0x606000018ce0&#45;&gt;nd0x606000018d40</title>
<path fill="none" stroke="black" d="M250.77,-1026.5C242.04,-1017.11 230.93,-1005.15 221.41,-994.89"/>
<polygon fill="black" stroke="black" points="223.88,-992.4 214.51,-987.46 218.75,-997.17 223.88,-992.4"/>
</g>
<!-- nd0x606000018e00 -->
<g id="node15" class="node">
<title>nd0x606000018e00</title>
<ellipse fill="none" stroke="black" cx="448.84" cy="-1043.74" rx="85.29" ry="18"/>
<text text-anchor="middle" x="448.84" y="-1040.04" font-family="Times,serif" font-size="14.00">局部变量定义序列</text>
</g>
<!-- nd0x606000018da0&#45;&gt;nd0x606000018e00 -->
<g id="edge14" class="edge">
<title>nd0x606000018da0&#45;&gt;nd0x606000018e00</title>
<path fill="none" stroke="black" d="M448.84,-1097.44C448.84,-1089.72 448.84,-1080.45 448.84,-1071.85"/>
<polygon fill="black" stroke="black" points="452.34,-1071.84 448.84,-1061.84 445.34,-1071.84 452.34,-1071.84"/>
</g>
<!-- nd0x6060000193a0 -->
<g id="node30" class="node">
<title>nd0x6060000193a0</title>
<ellipse fill="none" stroke="black" cx="764.84" cy="-1043.74" rx="48.19" ry="18"/>
<text text-anchor="middle" x="764.84" y="-1040.04" font-family="Times,serif" font-size="14.00">语句序列</text>
</g>
<!-- nd0x606000018da0&#45;&gt;nd0x6060000193a0 -->
<g id="edge29" class="edge">
<title>nd0x606000018da0&#45;&gt;nd0x6060000193a0</title>
<path fill="none" stroke="black" d="M489.19,-1105.8C546.56,-1093.09 651.67,-1069.81 714.21,-1055.96"/>
<polygon fill="black" stroke="black" points="715.23,-1059.31 724.24,-1053.73 713.72,-1052.48 715.23,-1059.31"/>
</g>
<!-- nd0x606000018e60 -->
<g id="node16" class="node">
<title>nd0x606000018e60</title>
<ellipse fill="none" stroke="black" cx="312.84" cy="-971.74" rx="66.09" ry="18"/>
<text text-anchor="middle" x="312.84" y="-968.04" font-family="Times,serif" font-size="14.00">局部变量定义</text>
</g>
<!-- nd0x606000018e00&#45;&gt;nd0x606000018e60 -->
<g id="edge15" class="edge">
<title>nd0x606000018e00&#45;&gt;nd0x606000018e60</title>
<path fill="none" stroke="black" d="M417.98,-1026.86C398.32,-1016.74 372.68,-1003.54 351.65,-992.71"/>
<polygon fill="black" stroke="black" points="353.14,-989.54 342.65,-988.08 349.94,-995.77 353.14,-989.54"/>
</g>
<!-- nd0x606000018fe0 -->
<g id="node20" class="node">
<title>nd0x606000018fe0</title>
<ellipse fill="none" stroke="black" cx="481.84" cy="-971.74" rx="85.29" ry="18"/>
<text text-anchor="middle" x="481.84" y="-968.04" font-family="Times,serif" font-size="14.00">局部变量定义序列</text>
</g>
<!-- nd0x606000018e00&#45;&gt;nd0x606000018fe0 -->
<g id="edge19" class="edge">
<title>nd0x606000018e00&#45;&gt;nd0x606000018fe0</title>
<path fill="none" stroke="black" d="M456.83,-1025.8C460.59,-1017.83 465.15,-1008.15 469.35,-999.25"/>
<polygon fill="black" stroke="black" points="472.6,-1000.55 473.7,-990.02 466.27,-997.57 472.6,-1000.55"/>
</g>
<!-- nd0x606000018ec0 -->
<g id="node17" class="node">
<title>nd0x606000018ec0</title>
<ellipse fill="lightgrey" stroke="black" cx="219.84" cy="-899.74" rx="27" ry="18"/>
<text text-anchor="middle" x="219.84" y="-896.04" font-family="Times,serif" font-size="14.00">int</text>
</g>
<!-- nd0x606000018e60&#45;&gt;nd0x606000018ec0 -->
<g id="edge16" class="edge">
<title>nd0x606000018e60&#45;&gt;nd0x606000018ec0</title>
<path fill="none" stroke="black" d="M291.27,-954.5C277.55,-944.17 259.71,-930.75 245.29,-919.89"/>
<polygon fill="black" stroke="black" points="247.35,-917.06 237.25,-913.84 243.14,-922.66 247.35,-917.06"/>
</g>
<!-- nd0x606000018f20 -->
<g id="node18" class="node">
<title>nd0x606000018f20</title>
<ellipse fill="none" stroke="black" cx="312.84" cy="-899.74" rx="48.19" ry="18"/>
<text text-anchor="middle" x="312.84" y="-896.04" font-family="Times,serif" font-size="14.00">变量序列</text>
</g>
<!-- nd0x606000018e60&#45;&gt;nd0x606000018f20 -->
<g id="edge17" class="edge">
<title>nd0x606000018e60&#45;&gt;nd0x606000018f20</title>
<path fill="none" stroke="black" d="M312.84,-953.44C312.84,-945.72 312.84,-936.45 312.84,-927.85"/>
<polygon fill="black" stroke="black" points="316.34,-927.84 312.84,-917.84 309.34,-927.84 316.34,-927.84"/>
</g>
<!-- nd0x606000018f80 -->
<g id="node19" class="node">
<title>nd0x606000018f80</title>
<ellipse fill="lightgrey" stroke="black" cx="312.84" cy="-827.74" rx="27" ry="18"/>
<text text-anchor="middle" x="312.84" y="-824.04" font-family="Times,serif" font-size="14.00">i</text>
</g>
<!-- nd0x606000018f20&#45;&gt;nd0x606000018f80 -->
<g id="edge18" class="edge">
<title>nd0x606000018f20&#45;&gt;nd0x606000018f80</title>
<path fill="none" stroke="black" d="M312.84,-881.44C312.84,-873.72 312.84,-864.45 312.84,-855.85"/>
<polygon fill="black" stroke="black" points="316.34,-855.84 312.84,-845.84 309.34,-855.84 316.34,-855.84"/>
</g>
<!-- nd0x606000019040 -->
<g id="node21" class="node">
<title>nd0x606000019040</title>
<ellipse fill="none" stroke="black" cx="481.84" cy="-899.74" rx="66.09" ry="18"/>
<text text-anchor="middle" x="481.84" y="-896.04" font-family="Times,serif" font-size="14.00">局部变量定义</text>
</g>
<!-- nd0x606000018fe0&#45;&gt;nd0x606000019040 -->
<g id="edge20" class="edge">
<title>nd0x606000018fe0&#45;&gt;nd0x606000019040</title>
<path fill="none" stroke="black" d="M481.84,-953.44C481.84,-945.72 481.84,-936.45 481.84,-927.85"/>
<polygon fill="black" stroke="black" points="485.34,-927.84 481.84,-917.84 478.34,-927.84 485.34,-927.84"/>
</g>
<!-- nd0x6060000190a0 -->
<g id="node22" class="node">
<title>nd0x6060000190a0</title>
<ellipse fill="lightgrey" stroke="black" cx="386.84" cy="-827.74" rx="28.7" ry="18"/>
<text text-anchor="middle" x="386.84" y="-824.04" font-family="Times,serif" font-size="14.00">float</text>
</g>
<!-- nd0x606000019040&#45;&gt;nd0x6060000190a0 -->
<g id="edge21" class="edge">
<title>nd0x606000019040&#45;&gt;nd0x6060000190a0</title>
<path fill="none" stroke="black" d="M459.81,-882.5C445.79,-872.17 427.56,-858.75 412.84,-847.89"/>
<polygon fill="black" stroke="black" points="414.75,-844.96 404.63,-841.84 410.6,-850.59 414.75,-844.96"/>
</g>
<!-- nd0x606000019100 -->
<g id="node23" class="node">
<title>nd0x606000019100</title>
<ellipse fill="none" stroke="black" cx="481.84" cy="-827.74" rx="48.19" ry="18"/>
<text text-anchor="middle" x="481.84" y="-824.04" font-family="Times,serif" font-size="14.00">变量序列</text>
</g>
<!-- nd0x606000019040&#45;&gt;nd0x606000019100 -->
<g id="edge22" class="edge">
<title>nd0x606000019040&#45;&gt;nd0x606000019100</title>
<path fill="none" stroke="black" d="M481.84,-881.44C481.84,-873.72 481.84,-864.45 481.84,-855.85"/>
<polygon fill="black" stroke="black" points="485.34,-855.84 481.84,-845.84 478.34,-855.84 485.34,-855.84"/>
</g>
<!-- nd0x606000019160 -->
<g id="node24" class="node">
<title>nd0x606000019160</title>
<ellipse fill="none" stroke="black" cx="386.84" cy="-755.74" rx="29.5" ry="18"/>
<text text-anchor="middle" x="386.84" y="-752.04" font-family="Times,serif" font-size="14.00">数组</text>
</g>
<!-- nd0x606000019100&#45;&gt;nd0x606000019160 -->
<g id="edge23" class="edge">
<title>nd0x606000019100&#45;&gt;nd0x606000019160</title>
<path fill="none" stroke="black" d="M460.76,-811.2C446.78,-800.9 428.32,-787.3 413.34,-776.27"/>
<polygon fill="black" stroke="black" points="415.11,-773.22 404.99,-770.11 410.96,-778.86 415.11,-773.22"/>
</g>
<!-- nd0x6060000192e0 -->
<g id="node28" class="node">
<title>nd0x6060000192e0</title>
<ellipse fill="none" stroke="black" cx="481.84" cy="-755.74" rx="48.19" ry="18"/>
<text text-anchor="middle" x="481.84" y="-752.04" font-family="Times,serif" font-size="14.00">变量序列</text>
</g>
<!-- nd0x606000019100&#45;&gt;nd0x6060000192e0 -->
<g id="edge27" class="edge">
<title>nd0x606000019100&#45;&gt;nd0x6060000192e0</title>
<path fill="none" stroke="black" d="M481.84,-809.44C481.84,-801.72 481.84,-792.45 481.84,-783.85"/>
<polygon fill="black" stroke="black" points="485.34,-783.84 481.84,-773.84 478.34,-783.84 485.34,-783.84"/>
</g>
<!-- nd0x6060000191c0 -->
<g id="node25" class="node">
<title>nd0x6060000191c0</title>
<ellipse fill="lightgrey" stroke="black" cx="305.84" cy="-683.74" rx="30.59" ry="18"/>
<text text-anchor="middle" x="305.84" y="-680.04" font-family="Times,serif" font-size="14.00">array</text>
</g>
<!-- nd0x606000019160&#45;&gt;nd0x6060000191c0 -->
<g id="edge24" class="edge">
<title>nd0x606000019160&#45;&gt;nd0x6060000191c0</title>
<path fill="none" stroke="black" d="M370.45,-740.57C358.89,-730.58 343.21,-717.03 330.19,-705.78"/>
<polygon fill="black" stroke="black" points="332.34,-703.02 322.49,-699.12 327.77,-708.31 332.34,-703.02"/>
</g>
<!-- nd0x606000019220 -->
<g id="node26" class="node">
<title>nd0x606000019220</title>
<ellipse fill="none" stroke="black" cx="392.84" cy="-683.74" rx="38.19" ry="18"/>
<text text-anchor="middle" x="392.84" y="-680.04" font-family="Times,serif" font-size="14.00">表达式</text>
</g>
<!-- nd0x606000019160&#45;&gt;nd0x606000019220 -->
<g id="edge25" class="edge">
<title>nd0x606000019160&#45;&gt;nd0x606000019220</title>
<path fill="none" stroke="black" d="M388.33,-737.44C388.99,-729.72 389.78,-720.45 390.52,-711.85"/>
<polygon fill="black" stroke="black" points="394.01,-712.11 391.38,-701.84 387.04,-711.51 394.01,-712.11"/>
</g>
<!-- nd0x606000019280 -->
<g id="node27" class="node">
<title>nd0x606000019280</title>
<ellipse fill="lightgrey" stroke="black" cx="392.84" cy="-611.74" rx="27" ry="18"/>
<text text-anchor="middle" x="392.84" y="-608.04" font-family="Times,serif" font-size="14.00">10</text>
</g>
<!-- nd0x606000019220&#45;&gt;nd0x606000019280 -->
<g id="edge26" class="edge">
<title>nd0x606000019220&#45;&gt;nd0x606000019280</title>
<path fill="none" stroke="black" d="M392.84,-665.44C392.84,-657.72 392.84,-648.45 392.84,-639.85"/>
<polygon fill="black" stroke="black" points="396.34,-639.84 392.84,-629.84 389.34,-639.84 396.34,-639.84"/>
</g>
<!-- nd0x606000019340 -->
<g id="node29" class="node">
<title>nd0x606000019340</title>
<ellipse fill="lightgrey" stroke="black" cx="481.84" cy="-683.74" rx="27" ry="18"/>
<text text-anchor="middle" x="481.84" y="-680.04" font-family="Times,serif" font-size="14.00">f</text>
</g>
<!-- nd0x6060000192e0&#45;&gt;nd0x606000019340 -->
<g id="edge28" class="edge">
<title>nd0x6060000192e0&#45;&gt;nd0x606000019340</title>
<path fill="none" stroke="black" d="M481.84,-737.44C481.84,-729.72 481.84,-720.45 481.84,-711.85"/>
<polygon fill="black" stroke="black" points="485.34,-711.84 481.84,-701.84 478.34,-711.84 485.34,-711.84"/>
</g>
<!-- nd0x606000019400 -->
<g id="node31" class="node">
<title>nd0x606000019400</title>
<ellipse fill="none" stroke="black" cx="847.84" cy="-971.74" rx="29.5" ry="18"/>
<text text-anchor="middle" x="847.84" y="-968.04" font-family="Times,serif" font-size="14.00">语句</text>
</g>
<!-- nd0x6060000193a0&#45;&gt;nd0x606000019400 -->
<g id="edge30" class="edge">
<title>nd0x6060000193a0&#45;&gt;nd0x606000019400</title>
<path fill="none" stroke="black" d="M783.68,-1026.86C795.45,-1016.93 810.73,-1004.04 823.42,-993.34"/>
<polygon fill="black" stroke="black" points="825.94,-995.79 831.33,-986.67 821.43,-990.44 825.94,-995.79"/>
</g>
<!-- nd0x606000019460 -->
<g id="node32" class="node">
<title>nd0x606000019460</title>
<ellipse fill="none" stroke="black" cx="929.84" cy="-899.74" rx="27" ry="18"/>
<text text-anchor="middle" x="929.84" y="-896.04" font-family="Times,serif" font-size="14.00">for</text>
</g>
<!-- nd0x606000019400&#45;&gt;nd0x606000019460 -->
<g id="edge31" class="edge">
<title>nd0x606000019400&#45;&gt;nd0x606000019460</title>
<path fill="none" stroke="black" d="M864.44,-956.57C876.37,-946.38 892.65,-932.49 905.98,-921.11"/>
<polygon fill="black" stroke="black" points="908.5,-923.56 913.83,-914.41 903.95,-918.24 908.5,-923.56"/>
</g>
<!-- nd0x606000019580 -->
<g id="node33" class="node">
<title>nd0x606000019580</title>
<ellipse fill="none" stroke="black" cx="709.84" cy="-827.74" rx="38.19" ry="18"/>
<text text-anchor="middle" x="709.84" y="-824.04" font-family="Times,serif" font-size="14.00">表达式</text>
</g>
<!-- nd0x606000019460&#45;&gt;nd0x606000019580 -->
<g id="edge32" class="edge">
<title>nd0x606000019460&#45;&gt;nd0x606000019580</title>
<path fill="none" stroke="black" d="M905.88,-891.12C868.53,-879.23 795.99,-856.15 750.39,-841.64"/>
<polygon fill="black" stroke="black" points="751.41,-838.29 740.82,-838.6 749.28,-844.96 751.41,-838.29"/>
</g>
<!-- nd0x6060000197c0 -->
<g id="node39" class="node">
<title>nd0x6060000197c0</title>
<ellipse fill="none" stroke="black" cx="929.84" cy="-827.74" rx="38.19" ry="18"/>
<text text-anchor="middle" x="929.84" y="-824.04" font-family="Times,serif" font-size="14.00">表达式</text>
</g>
<!-- nd0x606000019460&#45;&gt;nd0x6060000197c0 -->
<g id="edge38" class="edge">
<title>nd0x606000019460&#45;&gt;nd0x6060000197c0</title>
<path fill="none" stroke="black" d="M929.84,-881.44C929.84,-873.72 929.84,-864.45 929.84,-855.85"/>
<polygon fill="black" stroke="black" points="933.34,-855.84 929.84,-845.84 926.34,-855.84 933.34,-855.84"/>
</g>
<!-- nd0x606000019a00 -->
<g id="node45" class="node">
<title>nd0x606000019a00</title>
<ellipse fill="none" stroke="black" cx="1148.84" cy="-827.74" rx="38.19" ry="18"/>
<text text-anchor="middle" x="1148.84" y="-824.04" font-family="Times,serif" font-size="14.00">表达式</text>
</g>
<!-- nd0x606000019460&#45;&gt;nd0x606000019a00 -->
<g id="edge44" class="edge">
<title>nd0x606000019460&#45;&gt;nd0x606000019a00</title>
<path fill="none" stroke="black" d="M953.7,-891.12C990.88,-879.23 1063.08,-856.15 1108.48,-841.64"/>
<polygon fill="black" stroke="black" points="1109.55,-844.97 1118.01,-838.6 1107.42,-838.31 1109.55,-844.97"/>
</g>
<!-- nd0x606000019b80 -->
<g id="node51" class="node">
<title>nd0x606000019b80</title>
<ellipse fill="none" stroke="black" cx="1368.84" cy="-827.74" rx="48.19" ry="18"/>
<text text-anchor="middle" x="1368.84" y="-824.04" font-family="Times,serif" font-size="14.00">复合语句</text>
</g>
<!-- nd0x606000019460&#45;&gt;nd0x606000019b80 -->
<g id="edge50" class="edge">
<title>nd0x606000019460&#45;&gt;nd0x606000019b80</title>
<path fill="none" stroke="black" d="M955.99,-894.57C1026.34,-883.35 1220.71,-852.36 1315.49,-837.25"/>
<polygon fill="black" stroke="black" points="1316.12,-840.69 1325.44,-835.66 1315.01,-833.78 1316.12,-840.69"/>
</g>
<!-- nd0x6060000194c0 -->
<g id="node34" class="node">
<title>nd0x6060000194c0</title>
<ellipse fill="none" stroke="black" cx="585.84" cy="-755.74" rx="38.19" ry="18"/>
<text text-anchor="middle" x="585.84" y="-752.04" font-family="Times,serif" font-size="14.00">表达式</text>
</g>
<!-- nd0x606000019580&#45;&gt;nd0x6060000194c0 -->
<g id="edge33" class="edge">
<title>nd0x606000019580&#45;&gt;nd0x6060000194c0</title>
<path fill="none" stroke="black" d="M686.23,-813.41C666.92,-802.51 639.43,-786.99 618.09,-774.95"/>
<polygon fill="black" stroke="black" points="619.8,-771.89 609.37,-770.02 616.36,-777.99 619.8,-771.89"/>
</g>
<!-- nd0x6060000195e0 -->
<g id="node36" class="node">
<title>nd0x6060000195e0</title>
<ellipse fill="lightgrey" stroke="black" cx="668.84" cy="-755.74" rx="27" ry="18"/>
<text text-anchor="middle" x="668.84" y="-752.04" font-family="Times,serif" font-size="14.00">=</text>
</g>
<!-- nd0x606000019580&#45;&gt;nd0x6060000195e0 -->
<g id="edge35" class="edge">
<title>nd0x606000019580&#45;&gt;nd0x6060000195e0</title>
<path fill="none" stroke="black" d="M700.13,-810.15C695.1,-801.57 688.87,-790.93 683.29,-781.41"/>
<polygon fill="black" stroke="black" points="686.28,-779.59 678.21,-772.73 680.24,-783.13 686.28,-779.59"/>
</g>
<!-- nd0x606000019640 -->
<g id="node37" class="node">
<title>nd0x606000019640</title>
<ellipse fill="none" stroke="black" cx="751.84" cy="-755.74" rx="38.19" ry="18"/>
<text text-anchor="middle" x="751.84" y="-752.04" font-family="Times,serif" font-size="14.00">表达式</text>
</g>
<!-- nd0x606000019580&#45;&gt;nd0x606000019640 -->
<g id="edge36" class="edge">
<title>nd0x606000019580&#45;&gt;nd0x606000019640</title>
<path fill="none" stroke="black" d="M719.8,-810.15C724.87,-801.69 731.15,-791.23 736.8,-781.82"/>
<polygon fill="black" stroke="black" points="739.82,-783.59 741.96,-773.21 733.81,-779.98 739.82,-783.59"/>
</g>
<!-- nd0x606000019520 -->
<g id="node35" class="node">
<title>nd0x606000019520</title>
<ellipse fill="lightgrey" stroke="black" cx="585.84" cy="-683.74" rx="27" ry="18"/>
<text text-anchor="middle" x="585.84" y="-680.04" font-family="Times,serif" font-size="14.00">i</text>
</g>
<!-- nd0x6060000194c0&#45;&gt;nd0x606000019520 -->
<g id="edge34" class="edge">
<title>nd0x6060000194c0&#45;&gt;nd0x606000019520</title>
<path fill="none" stroke="black" d="M585.84,-737.44C585.84,-729.72 585.84,-720.45 585.84,-711.85"/>
<polygon fill="black" stroke="black" points="589.34,-711.84 585.84,-701.84 582.34,-711.84 589.34,-711.84"/>
</g>
<!-- nd0x6060000196a0 -->
<g id="node38" class="node">
<title>nd0x6060000196a0</title>
<ellipse fill="lightgrey" stroke="black" cx="751.84" cy="-683.74" rx="27" ry="18"/>
<text text-anchor="middle" x="751.84" y="-680.04" font-family="Times,serif" font-size="14.00">0</text>
</g>
<!-- nd0x606000019640&#45;&gt;nd0x6060000196a0 -->
<g id="edge37" class="edge">
<title>nd0x606000019640&#45;&gt;nd0x6060000196a0</title>
<path fill="none" stroke="black" d="M751.84,-737.44C751.84,-729.72 751.84,-720.45 751.84,-711.85"/>
<polygon fill="black" stroke="black" points="755.34,-711.84 751.84,-701.84 748.34,-711.84 755.34,-711.84"/>
</g>
<!-- nd0x606000019700 -->
<g id="node40" class="node">
<title>nd0x606000019700</title>
<ellipse fill="none" stroke="black" cx="846.84" cy="-755.74" rx="38.19" ry="18"/>
<text text-anchor="middle" x="846.84" y="-752.04" font-family="Times,serif" font-size="14.00">表达式</text>
</g>
<!-- nd0x6060000197c0&#45;&gt;nd0x606000019700 -->
<g id="edge39" class="edge">
<title>nd0x6060000197c0&#45;&gt;nd0x606000019700</title>
<path fill="none" stroke="black" d="M911.83,-811.55C900.41,-801.92 885.45,-789.3 872.77,-778.6"/>
<polygon fill="black" stroke="black" points="874.72,-775.67 864.82,-771.9 870.21,-781.02 874.72,-775.67"/>
</g>
<!-- nd0x606000019820 -->
<g id="node42" class="node">
<title>nd0x606000019820</title>
<ellipse fill="lightgrey" stroke="black" cx="929.84" cy="-755.74" rx="27" ry="18"/>
<text text-anchor="middle" x="929.84" y="-752.04" font-family="Times,serif" font-size="14.00">&lt;</text>
</g>
<!-- nd0x6060000197c0&#45;&gt;nd0x606000019820 -->
<g id="edge41" class="edge">
<title>nd0x6060000197c0&#45;&gt;nd0x606000019820</title>
<path fill="none" stroke="black" d="M929.84,-809.44C929.84,-801.72 929.84,-792.45 929.84,-783.85"/>
<polygon fill="black" stroke="black" points="933.34,-783.84 929.84,-773.84 926.34,-783.84 933.34,-783.84"/>
</g>
<!-- nd0x606000019880 -->
<g id="node43" class="node">
<title>nd0x606000019880</title>
<ellipse fill="none" stroke="black" cx="1012.84" cy="-755.74" rx="38.19" ry="18"/>
<text text-anchor="middle" x="1012.84" y="-752.04" font-family="Times,serif" font-size="14.00">表达式</text>
</g>
<!-- nd0x6060000197c0&#45;&gt;nd0x606000019880 -->
<g id="edge42" class="edge">
<title>nd0x6060000197c0&#45;&gt;nd0x606000019880</title>
<path fill="none" stroke="black" d="M947.85,-811.55C959.27,-801.92 974.23,-789.3 986.92,-778.6"/>
<polygon fill="black" stroke="black" points="989.48,-781.02 994.87,-771.9 984.97,-775.67 989.48,-781.02"/>
</g>
<!-- nd0x606000019760 -->
<g id="node41" class="node">
<title>nd0x606000019760</title>
<ellipse fill="lightgrey" stroke="black" cx="846.84" cy="-683.74" rx="27" ry="18"/>
<text text-anchor="middle" x="846.84" y="-680.04" font-family="Times,serif" font-size="14.00">i</text>
</g>
<!-- nd0x606000019700&#45;&gt;nd0x606000019760 -->
<g id="edge40" class="edge">
<title>nd0x606000019700&#45;&gt;nd0x606000019760</title>
<path fill="none" stroke="black" d="M846.84,-737.44C846.84,-729.72 846.84,-720.45 846.84,-711.85"/>
<polygon fill="black" stroke="black" points="850.34,-711.84 846.84,-701.84 843.34,-711.84 850.34,-711.84"/>
</g>
<!-- nd0x6060000198e0 -->
<g id="node44" class="node">
<title>nd0x6060000198e0</title>
<ellipse fill="lightgrey" stroke="black" cx="1012.84" cy="-683.74" rx="27" ry="18"/>
<text text-anchor="middle" x="1012.84" y="-680.04" font-family="Times,serif" font-size="14.00">10</text>
</g>
<!-- nd0x606000019880&#45;&gt;nd0x6060000198e0 -->
<g id="edge43" class="edge">
<title>nd0x606000019880&#45;&gt;nd0x6060000198e0</title>
<path fill="none" stroke="black" d="M1012.84,-737.44C1012.84,-729.72 1012.84,-720.45 1012.84,-711.85"/>
<polygon fill="black" stroke="black" points="1016.34,-711.84 1012.84,-701.84 1009.34,-711.84 1016.34,-711.84"/>
</g>
<!-- nd0x606000019940 -->
<g id="node46" class="node">
<title>nd0x606000019940</title>
<ellipse fill="none" stroke="black" cx="1107.84" cy="-755.74" rx="38.19" ry="18"/>
<text text-anchor="middle" x="1107.84" y="-752.04" font-family="Times,serif" font-size="14.00">表达式</text>
</g>
<!-- nd0x606000019a00&#45;&gt;nd0x606000019940 -->
<g id="edge45" class="edge">
<title>nd0x606000019a00&#45;&gt;nd0x606000019940</title>
<path fill="none" stroke="black" d="M1139.13,-810.15C1134.22,-801.78 1128.17,-791.45 1122.7,-782.11"/>
<polygon fill="black" stroke="black" points="1125.56,-780.07 1117.49,-773.21 1119.52,-783.61 1125.56,-780.07"/>
</g>
<!-- nd0x606000019a60 -->
<g id="node48" class="node">
<title>nd0x606000019a60</title>
<ellipse fill="lightgrey" stroke="black" cx="1190.84" cy="-755.74" rx="27" ry="18"/>
<text text-anchor="middle" x="1190.84" y="-752.04" font-family="Times,serif" font-size="14.00">+=</text>
</g>
<!-- nd0x606000019a00&#45;&gt;nd0x606000019a60 -->
<g id="edge47" class="edge">
<title>nd0x606000019a00&#45;&gt;nd0x606000019a60</title>
<path fill="none" stroke="black" d="M1158.8,-810.15C1163.94,-801.57 1170.33,-790.93 1176.04,-781.41"/>
<polygon fill="black" stroke="black" points="1179.11,-783.1 1181.25,-772.73 1173.1,-779.5 1179.11,-783.1"/>
</g>
<!-- nd0x606000019ac0 -->
<g id="node49" class="node">
<title>nd0x606000019ac0</title>
<ellipse fill="none" stroke="black" cx="1273.84" cy="-755.74" rx="38.19" ry="18"/>
<text text-anchor="middle" x="1273.84" y="-752.04" font-family="Times,serif" font-size="14.00">表达式</text>
</g>
<!-- nd0x606000019a00&#45;&gt;nd0x606000019ac0 -->
<g id="edge48" class="edge">
<title>nd0x606000019a00&#45;&gt;nd0x606000019ac0</title>
<path fill="none" stroke="black" d="M1172.65,-813.41C1192.11,-802.51 1219.82,-786.99 1241.33,-774.95"/>
<polygon fill="black" stroke="black" points="1243.11,-777.96 1250.13,-770.02 1239.69,-771.85 1243.11,-777.96"/>
</g>
<!-- nd0x6060000199a0 -->
<g id="node47" class="node">
<title>nd0x6060000199a0</title>
<ellipse fill="lightgrey" stroke="black" cx="1107.84" cy="-683.74" rx="27" ry="18"/>
<text text-anchor="middle" x="1107.84" y="-680.04" font-family="Times,serif" font-size="14.00">i</text>
</g>
<!-- nd0x606000019940&#45;&gt;nd0x6060000199a0 -->
<g id="edge46" class="edge">
<title>nd0x606000019940&#45;&gt;nd0x6060000199a0</title>
<path fill="none" stroke="black" d="M1107.84,-737.44C1107.84,-729.72 1107.84,-720.45 1107.84,-711.85"/>
<polygon fill="black" stroke="black" points="1111.34,-711.84 1107.84,-701.84 1104.34,-711.84 1111.34,-711.84"/>
</g>
<!-- nd0x606000019b20 -->
<g id="node50" class="node">
<title>nd0x606000019b20</title>
<ellipse fill="lightgrey" stroke="black" cx="1273.84" cy="-683.74" rx="27" ry="18"/>
<text text-anchor="middle" x="1273.84" y="-680.04" font-family="Times,serif" font-size="14.00">1</text>
</g>
<!-- nd0x606000019ac0&#45;&gt;nd0x606000019b20 -->
<g id="edge49" class="edge">
<title>nd0x606000019ac0&#45;&gt;nd0x606000019b20</title>
<path fill="none" stroke="black" d="M1273.84,-737.44C1273.84,-729.72 1273.84,-720.45 1273.84,-711.85"/>
<polygon fill="black" stroke="black" points="1277.34,-711.84 1273.84,-701.84 1270.34,-711.84 1277.34,-711.84"/>
</g>
<!-- nd0x606000019be0 -->
<g id="node52" class="node">
<title>nd0x606000019be0</title>
<ellipse fill="none" stroke="black" cx="1368.84" cy="-755.74" rx="38.19" ry="18"/>
<text text-anchor="middle" x="1368.84" y="-752.04" font-family="Times,serif" font-size="14.00">空节点</text>
</g>
<!-- nd0x606000019b80&#45;&gt;nd0x606000019be0 -->
<g id="edge51" class="edge">
<title>nd0x606000019b80&#45;&gt;nd0x606000019be0</title>
<path fill="none" stroke="black" d="M1368.84,-809.44C1368.84,-801.72 1368.84,-792.45 1368.84,-783.85"/>
<polygon fill="black" stroke="black" points="1372.34,-783.84 1368.84,-773.84 1365.34,-783.84 1372.34,-783.84"/>
</g>
<!-- nd0x606000019c40 -->
<g id="node53" class="node">
<title>nd0x606000019c40</title>
<ellipse fill="none" stroke="black" cx="1472.84" cy="-755.74" rx="48.19" ry="18"/>
<text text-anchor="middle" x="1472.84" y="-752.04" font-family="Times,serif" font-size="14.00">语句序列</text>
</g>
<!-- nd0x606000019b80&#45;&gt;nd0x606000019c40 -->
<g id="edge52" class="edge">
<title>nd0x606000019b80&#45;&gt;nd0x606000019c40</title>
<path fill="none" stroke="black" d="M1391.15,-811.72C1405.96,-801.76 1425.59,-788.54 1441.9,-777.57"/>
<polygon fill="black" stroke="black" points="1444.23,-780.22 1450.57,-771.73 1440.32,-774.41 1444.23,-780.22"/>
</g>
<!-- nd0x606000019ca0 -->
<g id="node54" class="node">
<title>nd0x606000019ca0</title>
<ellipse fill="none" stroke="black" cx="1421.84" cy="-683.74" rx="29.5" ry="18"/>
<text text-anchor="middle" x="1421.84" y="-680.04" font-family="Times,serif" font-size="14.00">语句</text>
</g>
<!-- nd0x606000019c40&#45;&gt;nd0x606000019ca0 -->
<g id="edge53" class="edge">
<title>nd0x606000019c40&#45;&gt;nd0x606000019ca0</title>
<path fill="none" stroke="black" d="M1460.76,-738.15C1454.38,-729.4 1446.43,-718.49 1439.39,-708.82"/>
<polygon fill="black" stroke="black" points="1442.21,-706.75 1433.49,-700.73 1436.55,-710.87 1442.21,-706.75"/>
</g>
<!-- nd0x60600001a060 -->
<g id="node64" class="node">
<title>nd0x60600001a060</title>
<ellipse fill="none" stroke="black" cx="1522.84" cy="-683.74" rx="48.19" ry="18"/>
<text text-anchor="middle" x="1522.84" y="-680.04" font-family="Times,serif" font-size="14.00">语句序列</text>
</g>
<!-- nd0x606000019c40&#45;&gt;nd0x60600001a060 -->
<g id="edge63" class="edge">
<title>nd0x606000019c40&#45;&gt;nd0x60600001a060</title>
<path fill="none" stroke="black" d="M1484.69,-738.15C1490.79,-729.61 1498.36,-719.02 1505.14,-709.53"/>
<polygon fill="black" stroke="black" points="1508.11,-711.38 1511.08,-701.21 1502.42,-707.31 1508.11,-711.38"/>
</g>
<!-- nd0x606000019d00 -->
<g id="node55" class="node">
<title>nd0x606000019d00</title>
<ellipse fill="none" stroke="black" cx="1410.84" cy="-611.74" rx="38.19" ry="18"/>
<text text-anchor="middle" x="1410.84" y="-608.04" font-family="Times,serif" font-size="14.00">表达式</text>
</g>
<!-- nd0x606000019ca0&#45;&gt;nd0x606000019d00 -->
<g id="edge54" class="edge">
<title>nd0x606000019ca0&#45;&gt;nd0x606000019d00</title>
<path fill="none" stroke="black" d="M1419.18,-665.8C1417.97,-658.09 1416.5,-648.77 1415.14,-640.1"/>
<polygon fill="black" stroke="black" points="1418.57,-639.35 1413.56,-630.02 1411.65,-640.44 1418.57,-639.35"/>
</g>
<!-- nd0x606000019d60 -->
<g id="node56" class="node">
<title>nd0x606000019d60</title>
<ellipse fill="none" stroke="black" cx="1407.84" cy="-539.74" rx="48.19" ry="18"/>
<text text-anchor="middle" x="1407.84" y="-536.04" font-family="Times,serif" font-size="14.00">函数调用</text>
</g>
<!-- nd0x606000019d00&#45;&gt;nd0x606000019d60 -->
<g id="edge55" class="edge">
<title>nd0x606000019d00&#45;&gt;nd0x606000019d60</title>
<path fill="none" stroke="black" d="M1410.1,-593.44C1409.77,-585.72 1409.37,-576.45 1409,-567.85"/>
<polygon fill="black" stroke="black" points="1412.5,-567.69 1408.58,-557.84 1405.51,-567.99 1412.5,-567.69"/>
</g>
<!-- nd0x606000019dc0 -->
<g id="node57" class="node">
<title>nd0x606000019dc0</title>
<ellipse fill="lightgrey" stroke="black" cx="1290.84" cy="-467.74" rx="32.49" ry="18"/>
<text text-anchor="middle" x="1290.84" y="-464.04" font-family="Times,serif" font-size="14.00">printf</text>
</g>
<!-- nd0x606000019d60&#45;&gt;nd0x606000019dc0 -->
<g id="edge56" class="edge">
<title>nd0x606000019d60&#45;&gt;nd0x606000019dc0</title>
<path fill="none" stroke="black" d="M1383.32,-524.07C1365.15,-513.2 1340.3,-498.33 1320.93,-486.74"/>
<polygon fill="black" stroke="black" points="1322.57,-483.65 1312.19,-481.51 1318.98,-489.65 1322.57,-483.65"/>
</g>
<!-- nd0x606000019e20 -->
<g id="node58" class="node">
<title>nd0x606000019e20</title>
<ellipse fill="none" stroke="black" cx="1407.84" cy="-467.74" rx="66.09" ry="18"/>
<text text-anchor="middle" x="1407.84" y="-464.04" font-family="Times,serif" font-size="14.00">函数实参序列</text>
</g>
<!-- nd0x606000019d60&#45;&gt;nd0x606000019e20 -->
<g id="edge57" class="edge">
<title>nd0x606000019d60&#45;&gt;nd0x606000019e20</title>
<path fill="none" stroke="black" d="M1407.84,-521.44C1407.84,-513.72 1407.84,-504.45 1407.84,-495.85"/>
<polygon fill="black" stroke="black" points="1411.34,-495.84 1407.84,-485.84 1404.34,-495.84 1411.34,-495.84"/>
</g>
<!-- nd0x606000019e80 -->
<g id="node59" class="node">
<title>nd0x606000019e80</title>
<ellipse fill="none" stroke="black" cx="1288.84" cy="-395.74" rx="38.19" ry="18"/>
<text text-anchor="middle" x="1288.84" y="-392.04" font-family="Times,serif" font-size="14.00">表达式</text>
</g>
<!-- nd0x606000019e20&#45;&gt;nd0x606000019e80 -->
<g id="edge58" class="edge">
<title>nd0x606000019e20&#45;&gt;nd0x606000019e80</title>
<path fill="none" stroke="black" d="M1381.43,-451.2C1363.46,-440.63 1339.59,-426.59 1320.58,-415.41"/>
<polygon fill="black" stroke="black" points="1322.36,-412.39 1311.96,-410.34 1318.81,-418.43 1322.36,-412.39"/>
</g>
<!-- nd0x606000019f40 -->
<g id="node61" class="node">
<title>nd0x606000019f40</title>
<ellipse fill="none" stroke="black" cx="1411.84" cy="-395.74" rx="66.09" ry="18"/>
<text text-anchor="middle" x="1411.84" y="-392.04" font-family="Times,serif" font-size="14.00">函数实参序列</text>
</g>
<!-- nd0x606000019e20&#45;&gt;nd0x606000019f40 -->
<g id="edge60" class="edge">
<title>nd0x606000019e20&#45;&gt;nd0x606000019f40</title>
<path fill="none" stroke="black" d="M1408.83,-449.44C1409.27,-441.72 1409.8,-432.45 1410.29,-423.85"/>
<polygon fill="black" stroke="black" points="1413.79,-424.03 1410.87,-413.84 1406.8,-423.63 1413.79,-424.03"/>
</g>
<!-- nd0x606000019ee0 -->
<g id="node60" class="node">
<title>nd0x606000019ee0</title>
<ellipse fill="lightgrey" stroke="black" cx="1288.84" cy="-323.74" rx="58.49" ry="18"/>
<text text-anchor="middle" x="1288.84" y="-320.04" font-family="Times,serif" font-size="14.00">&quot;hello * %d&quot;</text>
</g>
<!-- nd0x606000019e80&#45;&gt;nd0x606000019ee0 -->
<g id="edge59" class="edge">
<title>nd0x606000019e80&#45;&gt;nd0x606000019ee0</title>
<path fill="none" stroke="black" d="M1288.84,-377.44C1288.84,-369.72 1288.84,-360.45 1288.84,-351.85"/>
<polygon fill="black" stroke="black" points="1292.34,-351.84 1288.84,-341.84 1285.34,-351.84 1292.34,-351.84"/>
</g>
<!-- nd0x606000019fa0 -->
<g id="node62" class="node">
<title>nd0x606000019fa0</title>
<ellipse fill="none" stroke="black" cx="1411.84" cy="-323.74" rx="38.19" ry="18"/>
<text text-anchor="middle" x="1411.84" y="-320.04" font-family="Times,serif" font-size="14.00">表达式</text>
</g>
<!-- nd0x606000019f40&#45;&gt;nd0x606000019fa0 -->
<g id="edge61" class="edge">
<title>nd0x606000019f40&#45;&gt;nd0x606000019fa0</title>
<path fill="none" stroke="black" d="M1411.84,-377.44C1411.84,-369.72 1411.84,-360.45 1411.84,-351.85"/>
<polygon fill="black" stroke="black" points="1415.34,-351.84 1411.84,-341.84 1408.34,-351.84 1415.34,-351.84"/>
</g>
<!-- nd0x60600001a000 -->
<g id="node63" class="node">
<title>nd0x60600001a000</title>
<ellipse fill="lightgrey" stroke="black" cx="1411.84" cy="-242.87" rx="27" ry="18"/>
<text text-anchor="middle" x="1411.84" y="-239.17" font-family="Times,serif" font-size="14.00">i</text>
</g>
<!-- nd0x606000019fa0&#45;&gt;nd0x60600001a000 -->
<g id="edge62" class="edge">
<title>nd0x606000019fa0&#45;&gt;nd0x60600001a000</title>
<path fill="none" stroke="black" d="M1411.84,-305.63C1411.84,-295.6 1411.84,-282.71 1411.84,-271.29"/>
<polygon fill="black" stroke="black" points="1415.34,-270.95 1411.84,-260.95 1408.34,-270.95 1415.34,-270.95"/>
</g>
<!-- nd0x60600001a0c0 -->
<g id="node65" class="node">
<title>nd0x60600001a0c0</title>
<ellipse fill="none" stroke="black" cx="1523.84" cy="-611.74" rx="29.5" ry="18"/>
<text text-anchor="middle" x="1523.84" y="-608.04" font-family="Times,serif" font-size="14.00">语句</text>
</g>
<!-- nd0x60600001a060&#45;&gt;nd0x60600001a0c0 -->
<g id="edge64" class="edge">
<title>nd0x60600001a060&#45;&gt;nd0x60600001a0c0</title>
<path fill="none" stroke="black" d="M1523.09,-665.44C1523.2,-657.72 1523.33,-648.45 1523.46,-639.85"/>
<polygon fill="black" stroke="black" points="1526.95,-639.89 1523.6,-629.84 1519.96,-639.79 1526.95,-639.89"/>
</g>
<!-- nd0x60600001a120 -->
<g id="node66" class="node">
<title>nd0x60600001a120</title>
<ellipse fill="none" stroke="black" cx="1525.84" cy="-539.74" rx="38.19" ry="18"/>
<text text-anchor="middle" x="1525.84" y="-536.04" font-family="Times,serif" font-size="14.00">表达式</text>
</g>
<!-- nd0x60600001a0c0&#45;&gt;nd0x60600001a120 -->
<g id="edge65" class="edge">
<title>nd0x60600001a0c0&#45;&gt;nd0x60600001a120</title>
<path fill="none" stroke="black" d="M1524.34,-593.44C1524.56,-585.72 1524.82,-576.45 1525.07,-567.85"/>
<polygon fill="black" stroke="black" points="1528.57,-567.94 1525.35,-557.84 1521.57,-567.74 1528.57,-567.94"/>
</g>
<!-- nd0x60600001a180 -->
<g id="node67" class="node">
<title>nd0x60600001a180</title>
<ellipse fill="none" stroke="black" cx="1539.84" cy="-467.74" rx="48.19" ry="18"/>
<text text-anchor="middle" x="1539.84" y="-464.04" font-family="Times,serif" font-size="14.00">函数调用</text>
</g>
<!-- nd0x60600001a120&#45;&gt;nd0x60600001a180 -->
<g id="edge66" class="edge">
<title>nd0x60600001a120&#45;&gt;nd0x60600001a180</title>
<path fill="none" stroke="black" d="M1529.23,-521.8C1530.77,-514.09 1532.64,-504.77 1534.37,-496.1"/>
<polygon fill="black" stroke="black" points="1537.86,-496.51 1536.39,-486.02 1530.99,-495.13 1537.86,-496.51"/>
</g>
<!-- nd0x60600001a1e0 -->
<g id="node68" class="node">
<title>nd0x60600001a1e0</title>
<ellipse fill="lightgrey" stroke="black" cx="1535.84" cy="-395.74" rx="32.49" ry="18"/>
<text text-anchor="middle" x="1535.84" y="-392.04" font-family="Times,serif" font-size="14.00">printf</text>
</g>
<!-- nd0x60600001a180&#45;&gt;nd0x60600001a1e0 -->
<g id="edge67" class="edge">
<title>nd0x60600001a180&#45;&gt;nd0x60600001a1e0</title>
<path fill="none" stroke="black" d="M1538.85,-449.44C1538.41,-441.72 1537.88,-432.45 1537.39,-423.85"/>
<polygon fill="black" stroke="black" points="1540.88,-423.63 1536.82,-413.84 1533.9,-424.03 1540.88,-423.63"/>
</g>
<!-- nd0x60600001a240 -->
<g id="node69" class="node">
<title>nd0x60600001a240</title>
<ellipse fill="none" stroke="black" cx="1652.84" cy="-395.74" rx="66.09" ry="18"/>
<text text-anchor="middle" x="1652.84" y="-392.04" font-family="Times,serif" font-size="14.00">函数实参序列</text>
</g>
<!-- nd0x60600001a180&#45;&gt;nd0x60600001a240 -->
<g id="edge68" class="edge">
<title>nd0x60600001a180&#45;&gt;nd0x60600001a240</title>
<path fill="none" stroke="black" d="M1563.53,-452.07C1579.4,-442.23 1600.56,-429.13 1618.3,-418.14"/>
<polygon fill="black" stroke="black" points="1620.56,-420.85 1627.22,-412.61 1616.87,-414.9 1620.56,-420.85"/>
</g>
<!-- nd0x60600001a2a0 -->
<g id="node70" class="node">
<title>nd0x60600001a2a0</title>
<ellipse fill="none" stroke="black" cx="1590.84" cy="-323.74" rx="38.19" ry="18"/>
<text text-anchor="middle" x="1590.84" y="-320.04" font-family="Times,serif" font-size="14.00">表达式</text>
</g>
<!-- nd0x60600001a240&#45;&gt;nd0x60600001a2a0 -->
<g id="edge69" class="edge">
<title>nd0x60600001a240&#45;&gt;nd0x60600001a2a0</title>
<path fill="none" stroke="black" d="M1638.15,-378.15C1630.24,-369.22 1620.35,-358.05 1611.65,-348.24"/>
<polygon fill="black" stroke="black" points="1614.25,-345.89 1605,-340.73 1609.01,-350.53 1614.25,-345.89"/>
</g>
<!-- nd0x60600001a360 -->
<g id="node72" class="node">
<title>nd0x60600001a360</title>
<ellipse fill="none" stroke="black" cx="1713.84" cy="-323.74" rx="66.09" ry="18"/>
<text text-anchor="middle" x="1713.84" y="-320.04" font-family="Times,serif" font-size="14.00">函数实参序列</text>
</g>
<!-- nd0x60600001a240&#45;&gt;nd0x60600001a360 -->
<g id="edge71" class="edge">
<title>nd0x60600001a240&#45;&gt;nd0x60600001a360</title>
<path fill="none" stroke="black" d="M1667.3,-378.15C1674.79,-369.56 1684.08,-358.9 1692.38,-349.37"/>
<polygon fill="black" stroke="black" points="1695.14,-351.53 1699.07,-341.7 1689.86,-346.94 1695.14,-351.53"/>
</g>
<!-- nd0x60600001a300 -->
<g id="node71" class="node">
<title>nd0x60600001a300</title>
<ellipse fill="lightgrey" stroke="black" cx="1590.84" cy="-242.87" rx="27" ry="26.74"/>
<text text-anchor="middle" x="1590.84" y="-246.67" font-family="Times,serif" font-size="14.00">&quot;%f</text>
<text text-anchor="middle" x="1590.84" y="-231.67" font-family="Times,serif" font-size="14.00">&quot;</text>
</g>
<!-- nd0x60600001a2a0&#45;&gt;nd0x60600001a300 -->
<g id="edge70" class="edge">
<title>nd0x60600001a2a0&#45;&gt;nd0x60600001a300</title>
<path fill="none" stroke="black" d="M1590.84,-305.63C1590.84,-298.14 1590.84,-289.05 1590.84,-280.17"/>
<polygon fill="black" stroke="black" points="1594.34,-279.95 1590.84,-269.95 1587.34,-279.95 1594.34,-279.95"/>
</g>
<!-- nd0x60600001a3c0 -->
<g id="node73" class="node">
<title>nd0x60600001a3c0</title>
<ellipse fill="none" stroke="black" cx="1713.84" cy="-242.87" rx="38.19" ry="18"/>
<text text-anchor="middle" x="1713.84" y="-239.17" font-family="Times,serif" font-size="14.00">表达式</text>
</g>
<!-- nd0x60600001a360&#45;&gt;nd0x60600001a3c0 -->
<g id="edge72" class="edge">
<title>nd0x60600001a360&#45;&gt;nd0x60600001a3c0</title>
<path fill="none" stroke="black" d="M1713.84,-305.63C1713.84,-295.6 1713.84,-282.71 1713.84,-271.29"/>
<polygon fill="black" stroke="black" points="1717.34,-270.95 1713.84,-260.95 1710.34,-270.95 1717.34,-270.95"/>
</g>
<!-- nd0x60600001a420 -->
<g id="node74" class="node">
<title>nd0x60600001a420</title>
<ellipse fill="none" stroke="black" cx="1713.84" cy="-162" rx="29.5" ry="18"/>
<text text-anchor="middle" x="1713.84" y="-158.3" font-family="Times,serif" font-size="14.00">数组</text>
</g>
<!-- nd0x60600001a3c0&#45;&gt;nd0x60600001a420 -->
<g id="edge73" class="edge">
<title>nd0x60600001a3c0&#45;&gt;nd0x60600001a420</title>
<path fill="none" stroke="black" d="M1713.84,-224.76C1713.84,-214.73 1713.84,-201.84 1713.84,-190.42"/>
<polygon fill="black" stroke="black" points="1717.34,-190.08 1713.84,-180.08 1710.34,-190.08 1717.34,-190.08"/>
</g>
<!-- nd0x60600001a480 -->
<g id="node75" class="node">
<title>nd0x60600001a480</title>
<ellipse fill="lightgrey" stroke="black" cx="1670.84" cy="-90" rx="30.59" ry="18"/>
<text text-anchor="middle" x="1670.84" y="-86.3" font-family="Times,serif" font-size="14.00">array</text>
</g>
<!-- nd0x60600001a420&#45;&gt;nd0x60600001a480 -->
<g id="edge74" class="edge">
<title>nd0x60600001a420&#45;&gt;nd0x60600001a480</title>
<path fill="none" stroke="black" d="M1703.87,-144.76C1698.61,-136.19 1692.03,-125.49 1686.14,-115.9"/>
<polygon fill="black" stroke="black" points="1688.98,-113.84 1680.76,-107.15 1683.01,-117.5 1688.98,-113.84"/>
</g>
<!-- nd0x60600001a4e0 -->
<g id="node76" class="node">
<title>nd0x60600001a4e0</title>
<ellipse fill="none" stroke="black" cx="1757.84" cy="-90" rx="38.19" ry="18"/>
<text text-anchor="middle" x="1757.84" y="-86.3" font-family="Times,serif" font-size="14.00">表达式</text>
</g>
<!-- nd0x60600001a420&#45;&gt;nd0x60600001a4e0 -->
<g id="edge75" class="edge">
<title>nd0x60600001a420&#45;&gt;nd0x60600001a4e0</title>
<path fill="none" stroke="black" d="M1724.05,-144.76C1729.36,-136.32 1735.97,-125.8 1741.93,-116.31"/>
<polygon fill="black" stroke="black" points="1745.03,-117.96 1747.39,-107.63 1739.1,-114.24 1745.03,-117.96"/>
</g>
<!-- nd0x60600001a540 -->
<g id="node77" class="node">
<title>nd0x60600001a540</title>
<ellipse fill="lightgrey" stroke="black" cx="1757.84" cy="-18" rx="27" ry="18"/>
<text text-anchor="middle" x="1757.84" y="-14.3" font-family="Times,serif" font-size="14.00">i</text>
</g>
<!-- nd0x60600001a4e0&#45;&gt;nd0x60600001a540 -->
<g id="edge76" class="edge">
<title>nd0x60600001a4e0&#45;&gt;nd0x60600001a540</title>
<path fill="none" stroke="black" d="M1757.84,-71.7C1757.84,-63.98 1757.84,-54.71 1757.84,-46.11"/>
<polygon fill="black" stroke="black" points="1761.34,-46.1 1757.84,-36.1 1754.34,-46.1 1761.34,-46.1"/>
</g>
</g>
</svg>
